<svg xmlns="http://www.w3.org/2000/svg" viewBox="0 0 198.45 201.61"><defs><style>.cls-1{fill:#f7f8f8;}</style></defs><title>icono-blanco</title><g id="Capa_2" data-name="Capa 2"><g id="Capa_1-2" data-name="Capa 1"><path class="cls-1" d="M72.55,21c-.59-1.27-1-2.08-1.37-2.95A13.24,13.24,0,0,1,75.9,2.42a13.09,13.09,0,0,1,16.3.9c5,4.56,10.07,9.2,14,14.86a7.5,7.5,0,0,0,5.12,3.28,83.65,83.65,0,0,1,17.79,6c3.61,1.64,2.67,1.89,6.43-.59s7.36-4.85,11-7.29A14.68,14.68,0,0,1,169.06,34.7a23.28,23.28,0,0,1-.61,2.32,1.23,1.23,0,0,0,.68,1.64c.7.37,1.48.61,2.18,1a14.55,14.55,0,0,1,7.27,16.62c-.21.9-.44,1.78-.68,2.79,1.06.52,2,.94,2.94,1.43A14.52,14.52,0,0,1,188.29,77a21.32,21.32,0,0,0-.56,2.33,1.2,1.2,0,0,0,.49,1c.68.41,1.47.62,2.18,1a14.62,14.62,0,0,1,1.95,25c-2.36,1.74-4.82,3.36-7.34,4.86a5.13,5.13,0,0,0-2.84,4.76,95.37,95.37,0,0,1-1.15,9.92,8,8,0,0,1-.43,2,3.25,3.25,0,0,1-6.19-.79,11.24,11.24,0,0,1,.19-2.38c.19-1.72.42-3.44.62-5.16,0-.38,0-.87-.41-1a1.71,1.71,0,0,0-1.1.23c-1.8,1.15-3.57,2.35-5.35,3.53-8.34,5.52-16.75,11-25,16.6A22.55,22.55,0,0,1,127.1,143a14.78,14.78,0,0,0-10.94,2.87c-2.31,1.67-2.38,1.61-1.56,4.38,1.11,3.76,0,6.83-2.88,9.32a27.76,27.76,0,0,1-3,2.06l-40,26.52c-1.08.72-2.12,1.51-3.47,2.48,3,1.56,5.84,2,8.63,2.57a84.66,84.66,0,0,0,95.25-49.85c.62-1.47,1.18-3,1.81-4.44a3,3,0,0,1,2.83-1.89,3.12,3.12,0,0,1,3.31,3.24,11.05,11.05,0,0,1-1.14,3.81,90.09,90.09,0,0,1-31,39.94,88.84,88.84,0,0,1-59.47,17.36,91.2,91.2,0,0,1-18.24-179C68.88,21.93,70.56,21.51,72.55,21Zm37.29,120.87a3.42,3.42,0,0,0,.73-.21,16.13,16.13,0,0,0,1.7-1,21.25,21.25,0,0,1,15.86-4.08,16,16,0,0,0,11.3-3c15.64-10.45,31.35-20.79,47-31.18a21.86,21.86,0,0,0,2.61-1.84,8.06,8.06,0,0,0-8.73-13.37,37.48,37.48,0,0,0-3.4,2.1c-1.46.93-2.88,1.94-4.39,2.77a3.09,3.09,0,0,1-4.2-1,3.16,3.16,0,0,1,.72-4.29,26.62,26.62,0,0,1,2.61-1.84c2.33-1.56,4.72-3,7-4.67a7.93,7.93,0,0,0,3.25-8.78,8,8,0,0,0-11.5-5c-1.77.91-3.37,2.15-5.06,3.22a25.35,25.35,0,0,1-2.74,1.63,3.07,3.07,0,0,1-3.88-1.07,3.18,3.18,0,0,1,.32-4,12.35,12.35,0,0,1,1.89-1.46c2.22-1.48,4.47-2.92,6.67-4.43A14.84,14.84,0,0,0,170.4,58a7.51,7.51,0,0,0,1.43-8.54,7.76,7.76,0,0,0-7.18-4.88,7.94,7.94,0,0,0-4.9,1.43c-1.89,1.25-3.75,2.54-5.69,3.72s-3.9,1-5-.43c-1.18-1.63-.66-3.57,1.48-5.06,2.4-1.68,4.89-3.24,7.32-4.89a15.25,15.25,0,0,0,2.8-2.23,7.48,7.48,0,0,0,1.5-8.52A7.77,7.77,0,0,0,155,23.66a9.59,9.59,0,0,0-5.92,2q-14.67,9.75-29.36,19.45c-.89.59-1.75,1.23-2.68,1.74-2.26,1.27-4.11.65-5.16-1.81-.93-2.21-1.77-4.47-2.52-6.74-4-12.19-11.92-21.6-21.33-29.94a6.68,6.68,0,0,0-1-.72,7,7,0,0,0-7.87.45,6.61,6.61,0,0,0-1.81,7.61,19.41,19.41,0,0,0,1.34,2.45,44.75,44.75,0,0,1,5.34,34.25c-2.7,11.41-5.26,22.86-8,34.27a7.77,7.77,0,0,0,1.16,6.7c10.28,15.27,20.39,30.66,30.55,46A7,7,0,0,0,109.84,141.87ZM89.34,166.5c.6-.34,1.19-.64,1.73-1q7-4.62,14-9.27c4.17-2.77,4.17-2.78,1.32-7.1L67.54,90.42c-.44-.67-.86-1.35-1.35-2-1.19-1.55-2-1.74-3.74-.62-5.7,3.7-11.37,7.46-17,11.23-1.06.7-1.07,1.07-.29,2.3.5.79,1,1.54,1.54,2.33a11.91,11.91,0,0,1,1.16,2.09,3.14,3.14,0,0,1-1.3,3.83,3,3,0,0,1-4-.52,16,16,0,0,1-1.43-1.92c-.61-.88-1.18-1.78-1.81-2.64a1.13,1.13,0,0,0-1.71-.33c-.66.45-1.34.87-2,1.31l-24,15.87c-.89.59-1.77,1.19-2.68,1.76a2,2,0,0,0-1,2.38c.47,2.08.87,4.17,1.44,6.23Q19.6,168.9,54,186.37c3.76,1.91,2.65,1.91,6-.3,6.69-4.38,13.34-8.83,20-13.26,4-2.65,3.74-2,1.11-5.93q-15-22.45-30.08-44.86c-.66-1-1.36-2-1.93-3a3.19,3.19,0,0,1,5.21-3.65,27.83,27.83,0,0,1,2.1,2.93l29.86,44.52c.67,1,1.33,2,2,3A4.7,4.7,0,0,0,89.34,166.5ZM70,82.24A1.66,1.66,0,0,0,70.79,81c2.38-10.24,4.79-20.48,7.12-30.73a36.8,36.8,0,0,0-.47-18.58c-1.51-5.28-1.16-4.41-5.91-3.59-.13,0-.26.07-.39.1A83.31,83.31,0,0,0,26.43,56c-14,16.76-20.54,36.17-19.71,58,0,.72-.24,1.61.82,2.18,1-.66,2.16-1.34,3.25-2.06L56.45,83.87c1-.66,2-1.32,3-2a8.43,8.43,0,0,1,8.39-.57C68.56,81.66,69.12,82.31,70,82.24Zm55.6-48.86c-5-2.71-9.76-4.26-12.85-4.28,1.61,3.22,2.35,6.75,4.3,10Z"/></g></g></svg>